<svg width="90" height="19" viewBox="0 0 90 19" fill="none" xmlns="http://www.w3.org/2000/svg">
<path d="M9.24494 0L11.8641 5.63991L18.0374 6.38809L13.4829 10.6219L14.679 16.7243L9.24494 13.701L3.8109 16.7243L5.00697 10.6219L0.452479 6.38809L6.62573 5.63991L9.24494 0Z" fill="#FFC633"/>
<path d="M33.0469 0L35.6661 5.63991L41.8394 6.38809L37.2849 10.6219L38.481 16.7243L33.0469 13.701L27.6129 16.7243L28.809 10.6219L24.2545 6.38809L30.4277 5.63991L33.0469 0Z" fill="#FFC633"/>
<path d="M56.8487 0L59.4679 5.63991L65.6412 6.38809L61.0867 10.6219L62.2827 16.7243L56.8487 13.701L51.4147 16.7243L52.6107 10.6219L48.0562 6.38809L54.2295 5.63991L56.8487 0Z" fill="#FFC633"/>
<path d="M80.6507 0L83.2699 5.63991L89.4432 6.38809L84.8887 10.6219L86.0847 16.7243L80.6507 13.701L75.2167 16.7243L76.4127 10.6219L71.8582 6.38809L78.0315 5.63991L80.6507 0Z" fill="#FFC633"/>
</svg>
