<svg width="156" height="33" viewBox="0 0 156 33" fill="none" xmlns="http://www.w3.org/2000/svg">
<path d="M141.312 9.43605L141.021 9.52824C139.887 7.18474 138.268 5.31921 136.162 3.93163C134.089 2.54403 131.482 1.85022 128.34 1.85022C126.591 1.85022 124.923 2.20481 123.336 2.91399C121.749 3.59242 120.356 4.56374 119.158 5.82795C117.992 7.06135 117.053 8.55686 116.34 10.3145C115.627 12.0721 115.271 14.0147 115.271 16.1424C115.271 18.27 115.627 20.2126 116.34 21.9702C117.053 23.7278 117.992 25.2387 119.158 26.503C120.356 27.7364 121.749 28.6923 123.336 29.3707C124.923 30.049 126.591 30.3882 128.34 30.3882C131.45 30.3882 133.976 29.9257 135.919 29.0006C137.895 28.0448 139.563 26.5955 140.924 24.6529L141.215 24.7451L141.118 27.7053C140.373 28.4453 139.515 29.1083 138.543 29.6941C137.572 30.2492 136.519 30.7271 135.385 31.128C134.284 31.498 133.134 31.7755 131.936 31.9605C130.738 32.1766 129.539 32.2846 128.341 32.2846C125.847 32.2846 123.466 31.8991 121.199 31.1282C118.932 30.3573 116.94 29.2781 115.223 27.8905C113.506 26.4721 112.146 24.7762 111.142 22.8027C110.138 20.7985 109.636 18.5783 109.636 16.1423C109.636 13.7063 110.138 11.5016 111.142 9.5282C112.146 7.52386 113.506 5.8125 115.223 4.39412C116.94 2.97568 118.932 1.89644 121.199 1.15639C123.466 0.385491 125.847 3.98854e-05 128.341 3.98854e-05C129.539 3.98854e-05 130.738 0.0925452 131.936 0.277556C133.134 0.462566 134.284 0.755512 135.385 1.15639C136.519 1.52642 137.572 2.00437 138.543 2.59027C139.515 3.1453 140.373 3.79283 141.118 4.53287L141.312 9.43605ZM34.252 18.2704C33.8959 18.4244 33.5558 18.6249 33.2317 18.872C32.9076 19.1185 32.7456 19.4577 32.7456 19.8896V25.5786C31.1909 27.7063 29.199 29.356 26.7698 30.5277C24.3406 31.6995 21.6523 32.2854 18.7048 32.2854C16.2108 32.2854 13.8302 31.8999 11.563 31.129C9.29573 30.3581 7.30378 29.2789 5.58713 27.8913C3.87051 26.4729 2.51014 24.777 1.50605 22.8035C0.502017 20.7993 0 18.5791 0 16.1431C0 13.7071 0.502017 11.5024 1.50605 9.52895C2.51014 7.52462 3.87051 5.81326 5.58713 4.39488C7.30378 2.97644 9.29573 1.89721 11.563 1.15719C13.8302 0.386263 16.2108 0.000798165 18.7048 0.000798165C19.9032 0.000798165 21.1016 0.0933033 22.3001 0.278314C23.4984 0.463324 24.6483 0.756271 25.7495 1.15715C26.8831 1.52717 27.9358 2.00513 28.9075 2.59102C29.8791 3.14605 30.7375 3.79359 31.4825 4.53363L31.6771 9.43641L31.3856 9.52859C30.252 7.18508 28.6325 5.31953 26.5272 3.93195C24.4543 2.54435 21.8469 1.85054 18.7052 1.85054C16.9561 1.85054 15.2881 2.20515 13.7011 2.91435C12.114 3.59275 10.7212 4.56406 9.52279 5.82827C8.35675 7.0617 7.41748 8.55722 6.70498 10.3148C5.99236 12.0724 5.63605 14.0151 5.63605 16.1427C5.63605 18.2395 5.97615 20.1667 6.65635 21.9243C7.36894 23.6819 8.30824 25.1928 9.47425 26.4571C10.6726 27.6905 12.0654 28.6618 13.6524 29.371C15.2395 30.0494 16.9238 30.3886 18.7052 30.3886C22.0737 30.3886 24.9563 29.7719 27.3531 28.5385V19.8892C27.3531 19.4577 27.1751 19.1185 26.819 18.8716C26.4949 18.6251 26.171 18.4246 25.8473 18.27L25.8917 18.039C26.0534 18.0672 26.345 18.098 26.7662 18.1312C27.1875 18.1594 27.6248 18.1902 28.078 18.2234H32.2565C32.6451 18.1952 33.0176 18.1645 33.3739 18.1312C33.73 18.103 34.0052 18.0723 34.1996 18.039L34.252 18.2704ZM69.442 0.971783C69.1179 1.12577 68.794 1.32629 68.4703 1.57335C68.1462 1.81984 67.9682 2.28237 67.9362 2.96092C67.9066 3.70097 67.8743 4.64145 67.8393 5.78237C67.8393 6.89246 67.8245 8.15669 67.7949 9.57505C67.7949 10.9935 67.7801 12.5353 67.7505 14.2004V19.3808C67.7208 21.385 67.4616 23.0964 66.9728 24.5148C66.487 25.9332 65.8392 27.1203 65.0295 28.0762C64.2522 29.0322 63.3777 29.7876 62.406 30.3427C61.4666 30.8977 60.5273 31.314 59.5881 31.5915C58.6811 31.9 57.8228 32.085 57.0132 32.1465C56.2034 32.239 55.5718 32.2853 55.1184 32.2853C53.2722 32.2853 51.4907 32.054 49.7741 31.5915C48.0574 31.16 46.5513 30.4508 45.2558 29.4638C43.9602 28.4771 42.9238 27.1974 42.1465 25.6249C41.3691 24.0523 40.9804 22.1405 40.9804 19.8895V14.663V9.85256C40.9804 8.37245 40.9656 7.04655 40.936 5.87484C40.936 4.67224 40.9212 3.70093 40.8915 2.96088C40.8619 2.28249 40.6839 1.81996 40.3574 1.57331C40.0333 1.32681 39.7094 1.12629 39.3857 0.971744L39.4302 0.74076C39.5919 0.768961 39.8512 0.79969 40.2078 0.832946C40.5965 0.861147 40.9852 0.891876 41.3739 0.925132C41.7951 0.925132 42.2 0.939232 42.5885 0.967434H44.3375C44.7262 0.939232 45.131 0.925132 45.5521 0.925132C45.9733 0.896931 46.362 0.866202 46.7181 0.832946C47.1067 0.804745 47.3819 0.774016 47.5437 0.74076L47.5881 0.971744C47.232 1.12573 46.892 1.32625 46.5679 1.57331C46.2764 1.8198 46.1143 2.28233 46.0817 2.96088C46.0521 3.70093 46.0198 4.67224 45.9849 5.87484V19.8895C45.9849 23.2505 46.8108 25.7327 48.4626 27.3362C50.1145 28.9396 52.5599 29.7413 55.7989 29.7413C56.7381 29.7413 57.807 29.6333 59.0054 29.4173C60.2039 29.1708 61.3213 28.6774 62.3577 27.9372C63.4266 27.1971 64.3173 26.1488 65.0299 24.792C65.7748 23.4352 66.1473 21.6314 66.1473 19.3804C66.1473 16.9444 66.1325 14.8631 66.1029 13.1363C66.1029 11.3787 66.088 9.88319 66.0584 8.64976C66.0584 7.38552 66.0436 6.30628 66.014 5.41203C65.9844 4.51784 65.9521 3.70071 65.9171 2.96065C65.8874 2.28225 65.7094 1.81972 65.3829 1.57307C65.0588 1.32657 64.735 1.12604 64.4113 0.971464L64.4557 0.740521C64.8118 0.801978 65.2167 0.863741 65.6703 0.92581C66.1235 0.954011 66.5446 0.968112 66.9335 0.968112C67.2896 0.968112 67.6945 0.954011 68.1481 0.92581C68.6339 0.864353 69.055 0.80259 69.4113 0.740521L69.442 0.971783ZM104.696 9.43605L104.405 9.52824C103.271 7.18474 101.652 5.31921 99.5462 3.93163C97.4733 2.54403 94.8659 1.85022 91.7242 1.85022C89.9752 1.85022 88.3071 2.20481 86.72 2.91399C85.1329 3.59242 83.7402 4.56374 82.5418 5.82795C81.3758 7.06135 80.4365 8.55686 79.7239 10.3145C79.0114 12.0721 78.6551 14.0148 78.6551 16.1424C78.6551 18.27 79.0114 20.2126 79.7239 21.9702C80.4366 23.7278 81.3759 25.2387 82.5418 26.503C83.7402 27.7364 85.1329 28.6923 86.72 29.3707C88.3071 30.049 89.9752 30.3882 91.7243 30.3882C94.8336 30.3882 97.36 29.9257 99.3034 29.0006C101.279 28.0448 102.947 26.5955 104.307 24.6529L104.599 24.7451L104.502 27.7053C103.757 28.4453 102.899 29.1083 101.927 29.6941C100.955 30.2491 99.9027 30.7271 98.7691 31.128C97.6679 31.498 96.5181 31.7755 95.3196 31.9605C94.1212 32.1765 92.9228 32.2846 91.7245 32.2846C89.2304 32.2846 86.8498 31.8991 84.5826 31.1282C82.3153 30.3573 80.3234 29.2781 78.6068 27.8905C76.8901 26.4721 75.5297 24.7762 74.5257 22.8027C73.5216 20.7984 73.0196 18.5783 73.0196 16.1423C73.0196 13.7063 73.5216 11.5016 74.5257 9.52816C75.5297 7.52382 76.8901 5.81246 78.6068 4.39408C80.3234 2.97564 82.3153 1.8964 84.5826 1.15635C86.8499 0.385452 89.2305 0 91.7245 0C92.9228 0 94.1212 0.0925053 95.3197 0.277516C96.5181 0.462526 97.6679 0.755472 98.7691 1.15635C99.9027 1.52638 100.955 2.00433 101.927 2.59023C102.899 3.14526 103.757 3.79279 104.502 4.53283L104.696 9.43605ZM155.956 31.4987C155.794 31.4705 155.519 31.4397 155.13 31.4065C154.774 31.4065 154.385 31.3924 153.964 31.3642C153.543 31.3642 153.138 31.3501 152.749 31.3219H149.835C149.446 31.3501 149.057 31.3808 148.669 31.4141C148.312 31.4423 148.037 31.473 147.843 31.5062L147.798 31.3209C148.122 31.1669 148.446 30.9664 148.77 30.7193C149.094 30.4729 149.272 30.0103 149.304 29.3318C149.334 28.5917 149.349 27.8209 149.349 27.0191C149.378 26.2174 149.393 25.3077 149.393 24.2902V20.8212V16.1497V11.4782V7.96295C149.393 6.94539 149.378 6.05116 149.349 5.28026C149.349 4.47855 149.334 3.70767 149.304 2.96763C149.275 2.28923 149.097 1.82671 148.77 1.58005C148.446 1.30254 148.122 1.08677 147.798 0.932754L147.843 0.747504C148.037 0.808962 148.312 0.855214 148.669 0.886262C149.057 0.886262 149.446 0.900363 149.835 0.928564C150.256 0.956765 150.661 0.970866 151.049 0.970866H152.749C153.138 0.942665 153.543 0.928564 153.964 0.928564C154.385 0.900363 154.774 0.869634 155.13 0.836378C155.519 0.808177 155.794 0.777448 155.956 0.744192L156 0.929522C155.644 1.08351 155.304 1.29926 154.98 1.57678C154.688 1.82327 154.526 2.2858 154.494 2.96436C154.464 3.7044 154.432 4.47527 154.397 5.27699V27.0159C154.426 27.8176 154.459 28.5885 154.494 29.3285C154.523 30.0069 154.685 30.4694 154.98 30.7161C155.304 30.9626 155.644 31.1631 156 31.3176L155.956 31.4987Z" fill="white"/>
</svg>
